#Comment line ignore any data following # character 
#Hierarchical Translation and Rotation (.htr) file 
[Header]	
#Header keywords are followed by a single value 
FileType HTR		#Single word string
DataType HTRS		#Translation followed by rotation and scale data
FileVersion 1		#integer
NumSegments 84		#integer
NumFrames 2		#integer
DataFrameRate 30		#integer, data frame rate in this file
EulerRotationOrder ZYX
CalibrationUnits mm
RotationUnits Degrees
GlobalAxisofGravity Y
BoneLengthAxis Y
ScaleFactor 1.00
[SegmentNames&Hierarchy]
#CHILD	PARENT
MASTER GLOBAL
root MASTER
chest root
L_mid_tent01 root
R_mid_tent01 root
spine01 root
Bip01_Neck chest
L_humerus chest
R_humerus chest
weapon_bone chest
Bip01_Head Bip01_Neck
eye_left_bone Bip01_Head
eye_right_bone Bip01_Head
L_forearm L_humerus
L_front_hand L_forearm
L_weapon_bone L_forearm
L_front_hand01_01 L_front_hand
L_front_hand02_01 L_front_hand
L_front_hand03_01 L_front_hand
L_front_hand01_02 L_front_hand01_01
L_front_hand02_02 L_front_hand02_01
L_front_hand03_02 L_front_hand03_01
R_forearm R_humerus
R_front_hand R_forearm
R_weapon_bone R_forearm
R_front_hand01_01 R_front_hand
R_front_hand02_01 R_front_hand
R_front_hand03_01 R_front_hand
R_front_hand01_02 R_front_hand01_01
R_front_hand02_02 R_front_hand02_01
R_front_hand03_02 R_front_hand03_01
null_rope01_connect L_mid_tent01
Rope1_Seg01 null_rope01_connect
Rope1_Seg02 Rope1_Seg01
Rope1_Seg03 Rope1_Seg02
Rope1_Seg04 Rope1_Seg03
Rope1_Seg05 Rope1_Seg04
Rope1_Seg06 Rope1_Seg05
Rope1_Seg07 Rope1_Seg06
Rope1_Seg09 Rope1_Seg07
L_mid_hand01 Rope1_Seg09
L_mid_hand02 Rope1_Seg09
L_mid_hand03 Rope1_Seg09
null_rope02_connect R_mid_tent01
Rope2_Seg01 null_rope02_connect
Rope2_Seg02 Rope2_Seg01
Rope2_Seg03 Rope2_Seg02
Rope2_Seg04 Rope2_Seg03
Rope2_Seg05 Rope2_Seg04
Rope2_Seg06 Rope2_Seg05
Rope2_Seg07 Rope2_Seg06
Rope2_Seg09 Rope2_Seg07
R_mid_hand01 Rope2_Seg09
R_mid_hand02 Rope2_Seg09
R_mid_hand03 Rope2_Seg09
spine02 spine01
spine03 spine02
pelvis spine03
null_rope03_connect pelvis
null_rope04_connect pelvis
Rope3_Seg01 null_rope03_connect
Rope3_Seg02 Rope3_Seg01
Rope3_Seg03 Rope3_Seg02
Rope3_Seg04 Rope3_Seg03
Rope3_Seg05 Rope3_Seg04
Rope3_Seg06 Rope3_Seg05
Rope3_Seg07 Rope3_Seg06
Rope3_Seg08 Rope3_Seg07
Rope3_Seg09 Rope3_Seg08
R_rear_hand01 Rope3_Seg09
R_rear_hand02 Rope3_Seg09
R_rear_hand03 Rope3_Seg09
Rope4_Seg01 null_rope04_connect
Rope4_Seg02 Rope4_Seg01
Rope4_Seg03 Rope4_Seg02
Rope4_Seg04 Rope4_Seg03
Rope4_Seg05 Rope4_Seg04
Rope4_Seg06 Rope4_Seg05
Rope4_Seg07 Rope4_Seg06
Rope4_Seg08 Rope4_Seg07
Rope4_Seg09 Rope4_Seg08
L_rear_hand01 Rope4_Seg09
L_rear_hand02 Rope4_Seg09
L_rear_hand03 Rope4_Seg09
[BasePosition]
#SegmentName Tx, Ty, Tz, Rx, Ry, Rz, BoneLength
MASTER 0.000000 0.000000 0.000000 -90.000000 0.000000 0.000000 10.000000 
root 0.000000 0.000000 0.000000 0.000000 0.000000 0.000000 10.000000 
chest 0.000000 0.000000 0.000000 0.000000 0.000000 0.000000 10.000000 
L_mid_tent01 0.000000 0.000000 0.000000 0.000000 0.000000 0.000000 10.000000 
R_mid_tent01 0.000000 0.000000 0.000000 0.000000 0.000000 0.000000 10.000000 
spine01 0.000000 0.000000 0.000000 0.000000 0.000000 0.000000 10.000000 
Bip01_Neck 0.000000 0.000000 0.000000 0.000000 0.000000 0.000000 10.000000 
L_humerus 0.000000 0.000000 0.000000 0.000000 0.000000 0.000000 10.000000 
R_humerus 0.000000 0.000000 0.000000 0.000000 0.000000 0.000000 10.000000 
weapon_bone 0.000000 0.000000 0.000000 0.000000 0.000000 0.000000 10.000000 
Bip01_Head 0.000000 0.000000 0.000000 0.000000 0.000000 0.000000 10.000000 
eye_left_bone 0.000000 0.000000 0.000000 0.000000 0.000000 0.000000 10.000000 
eye_right_bone 0.000000 0.000000 0.000000 0.000000 0.000000 0.000000 10.000000 
L_forearm 0.000000 0.000000 0.000000 0.000000 0.000000 0.000000 10.000000 
L_front_hand 0.000000 0.000000 0.000000 0.000000 0.000000 0.000000 10.000000 
L_weapon_bone 0.000000 0.000000 0.000000 0.000000 0.000000 0.000000 10.000000 
L_front_hand01_01 0.000000 0.000000 0.000000 0.000000 0.000000 0.000000 10.000000 
L_front_hand02_01 0.000000 0.000000 0.000000 0.000000 0.000000 0.000000 10.000000 
L_front_hand03_01 0.000000 0.000000 0.000000 0.000000 0.000000 0.000000 10.000000 
L_front_hand01_02 0.000000 0.000000 0.000000 0.000000 0.000000 0.000000 10.000000 
L_front_hand02_02 0.000000 0.000000 0.000000 0.000000 0.000000 0.000000 10.000000 
L_front_hand03_02 0.000000 0.000000 0.000000 0.000000 0.000000 0.000000 10.000000 
R_forearm 0.000000 0.000000 0.000000 0.000000 0.000000 0.000000 10.000000 
R_front_hand 0.000000 0.000000 0.000000 0.000000 0.000000 0.000000 10.000000 
R_weapon_bone 0.000000 0.000000 0.000000 0.000000 0.000000 0.000000 10.000000 
R_front_hand01_01 0.000000 0.000000 0.000000 0.000000 0.000000 0.000000 10.000000 
R_front_hand02_01 0.000000 0.000000 0.000000 0.000000 0.000000 0.000000 10.000000 
R_front_hand03_01 0.000000 0.000000 0.000000 0.000000 0.000000 0.000000 10.000000 
R_front_hand01_02 0.000000 0.000000 0.000000 0.000000 0.000000 0.000000 10.000000 
R_front_hand02_02 0.000000 0.000000 0.000000 0.000000 0.000000 0.000000 10.000000 
R_front_hand03_02 0.000000 0.000000 0.000000 0.000000 0.000000 0.000000 10.000000 
null_rope01_connect 0.000000 0.000000 0.000000 0.000000 0.000000 0.000000 10.000000 
Rope1_Seg01 0.000000 0.000000 0.000000 0.000000 0.000000 0.000000 10.000000 
Rope1_Seg02 0.000000 0.000000 0.000000 0.000000 0.000000 0.000000 10.000000 
Rope1_Seg03 0.000000 0.000000 0.000000 0.000000 0.000000 0.000000 10.000000 
Rope1_Seg04 0.000000 0.000000 0.000000 0.000000 0.000000 0.000000 10.000000 
Rope1_Seg05 0.000000 0.000000 0.000000 0.000000 0.000000 0.000000 10.000000 
Rope1_Seg06 0.000000 0.000000 0.000000 0.000000 0.000000 0.000000 10.000000 
Rope1_Seg07 0.000000 0.000000 0.000000 0.000000 0.000000 0.000000 10.000000 
Rope1_Seg09 0.000000 0.000000 0.000000 0.000000 0.000000 0.000000 10.000000 
L_mid_hand01 0.000000 0.000000 0.000000 0.000000 0.000000 0.000000 10.000000 
L_mid_hand02 0.000000 0.000000 0.000000 0.000000 0.000000 0.000000 10.000000 
L_mid_hand03 0.000000 0.000000 0.000000 0.000000 0.000000 0.000000 10.000000 
null_rope02_connect 0.000000 0.000000 0.000000 0.000000 0.000000 0.000000 10.000000 
Rope2_Seg01 0.000000 0.000000 0.000000 0.000000 0.000000 0.000000 10.000000 
Rope2_Seg02 0.000000 0.000000 0.000000 0.000000 0.000000 0.000000 10.000000 
Rope2_Seg03 0.000000 0.000000 0.000000 0.000000 0.000000 0.000000 10.000000 
Rope2_Seg04 0.000000 0.000000 0.000000 0.000000 0.000000 0.000000 10.000000 
Rope2_Seg05 0.000000 0.000000 0.000000 0.000000 0.000000 0.000000 10.000000 
Rope2_Seg06 0.000000 0.000000 0.000000 0.000000 0.000000 0.000000 10.000000 
Rope2_Seg07 0.000000 0.000000 0.000000 0.000000 0.000000 0.000000 10.000000 
Rope2_Seg09 0.000000 0.000000 0.000000 0.000000 0.000000 0.000000 10.000000 
R_mid_hand01 0.000000 0.000000 0.000000 0.000000 0.000000 0.000000 10.000000 
R_mid_hand02 0.000000 0.000000 0.000000 0.000000 0.000000 0.000000 10.000000 
R_mid_hand03 0.000000 0.000000 0.000000 0.000000 0.000000 0.000000 10.000000 
spine02 0.000000 0.000000 0.000000 0.000000 0.000000 0.000000 10.000000 
spine03 0.000000 0.000000 0.000000 0.000000 0.000000 0.000000 10.000000 
pelvis 0.000000 0.000000 0.000000 0.000000 0.000000 0.000000 10.000000 
null_rope03_connect 0.000000 0.000000 0.000000 0.000000 0.000000 0.000000 10.000000 
null_rope04_connect 0.000000 0.000000 0.000000 0.000000 0.000000 0.000000 10.000000 
Rope3_Seg01 0.000000 0.000000 0.000000 0.000000 0.000000 0.000000 10.000000 
Rope3_Seg02 0.000000 0.000000 0.000000 0.000000 0.000000 0.000000 10.000000 
Rope3_Seg03 0.000000 0.000000 0.000000 0.000000 0.000000 0.000000 10.000000 
Rope3_Seg04 0.000000 0.000000 0.000000 0.000000 0.000000 0.000000 10.000000 
Rope3_Seg05 0.000000 0.000000 0.000000 0.000000 0.000000 0.000000 10.000000 
Rope3_Seg06 0.000000 0.000000 0.000000 0.000000 0.000000 0.000000 10.000000 
Rope3_Seg07 0.000000 0.000000 0.000000 0.000000 0.000000 0.000000 10.000000 
Rope3_Seg08 0.000000 0.000000 0.000000 0.000000 0.000000 0.000000 10.000000 
Rope3_Seg09 0.000000 0.000000 0.000000 0.000000 0.000000 0.000000 10.000000 
R_rear_hand01 0.000000 0.000000 0.000000 0.000000 0.000000 0.000000 10.000000 
R_rear_hand02 0.000000 0.000000 0.000000 0.000000 0.000000 0.000000 10.000000 
R_rear_hand03 0.000000 0.000000 0.000000 0.000000 0.000000 0.000000 10.000000 
Rope4_Seg01 0.000000 0.000000 0.000000 0.000000 0.000000 0.000000 10.000000 
Rope4_Seg02 0.000000 0.000000 0.000000 0.000000 0.000000 0.000000 10.000000 
Rope4_Seg03 0.000000 0.000000 0.000000 0.000000 0.000000 0.000000 10.000000 
Rope4_Seg04 0.000000 0.000000 0.000000 0.000000 0.000000 0.000000 10.000000 
Rope4_Seg05 0.000000 0.000000 0.000000 0.000000 0.000000 0.000000 10.000000 
Rope4_Seg06 0.000000 0.000000 0.000000 0.000000 0.000000 0.000000 10.000000 
Rope4_Seg07 0.000000 0.000000 0.000000 0.000000 0.000000 0.000000 10.000000 
Rope4_Seg08 0.000000 0.000000 0.000000 0.000000 0.000000 0.000000 10.000000 
Rope4_Seg09 0.000000 0.000000 0.000000 0.000000 0.000000 0.000000 10.000000 
L_rear_hand01 0.000000 0.000000 0.000000 0.000000 0.000000 0.000000 10.000000 
L_rear_hand02 0.000000 0.000000 0.000000 0.000000 0.000000 0.000000 10.000000 
L_rear_hand03 0.000000 0.000000 0.000000 0.000000 0.000000 0.000000 10.000000 
#Beginning of Data. Separated by tabs
#Fr	Tx	Ty	Tz	Rx	Ry	Rz	SF
[MASTER]
63 198.448914 16316.083984 -117.900421 0.001660 0.001660 0.001660 16317.715820
64 159.719696 16528.228516 -103.713806 0.001660 0.001660 0.001660 16529.326172
[root]
63 -16.502296 -62.822266 1500.000000 -86.828560 -31.342442 -88.521416 1501.405640
64 -16.502295 -62.822266 1500.000000 -92.601357 -29.700720 -88.531219 1501.405640
[chest]
63 -84.512650 -34.090519 0.000000 -4.887502 -4.436742 178.647064 91.129311
64 -84.512650 -34.090519 0.000000 -8.229101 -4.561076 178.674057 91.129311
[L_mid_tent01]
63 27.298641 22.179258 -249.918701 -4.292369 14.990182 44.215855 252.381638
64 27.298634 22.179258 -249.918701 -4.712888 19.315676 48.219009 252.381638
[R_mid_tent01]
63 23.228794 24.509907 226.238495 -177.522583 -16.271729 44.839657 228.744751
64 23.228794 24.509907 226.238495 -178.845306 -19.140541 47.152164 228.744751
[spine01]
63 -0.361383 -0.195265 0.000000 0.001880 0.001405 16.458122 0.410763
64 -0.361383 -0.195265 0.000000 0.001890 0.001393 17.218449 0.410763
[Bip01_Neck]
63 165.484543 71.581718 0.000119 176.643677 -1.657967 43.431911 180.302734
64 165.484543 71.581718 0.000119 176.643677 -1.657967 43.431911 180.302734
[L_humerus]
63 -13.983130 -135.272980 -120.471481 165.552612 81.182648 -102.594170 181.680161
64 -13.983130 -135.272980 -120.471481 164.469894 84.675201 -103.840981 181.680161
[R_humerus]
63 -13.983309 -135.273102 125.287651 178.575455 -78.259308 -83.360123 184.909012
64 -13.983309 -135.273102 125.287651 170.600540 -81.642334 -75.332375 184.909012
[weapon_bone]
63 235.964890 -300.705902 0.000000 0.000000 -89.951546 -128.212341 382.234833
64 235.964890 -300.705902 0.000000 0.000000 -89.951546 -128.212341 382.234833
[Bip01_Head]
63 213.442978 185.715927 11.774101 21.465000 3.775393 -43.878601 283.172974
64 213.442902 185.715897 11.774459 21.510601 3.524856 -43.886967 283.172943
[eye_left_bone]
63 -24.626970 125.451866 -64.772606 0.000000 -90.000000 -99.840431 143.318359
64 -24.626970 125.451866 -64.772606 0.000000 -90.000000 -99.840431 143.318359
[eye_right_bone]
63 -24.626970 125.451866 64.327362 0.000000 -89.965736 80.156380 143.117676
64 -24.626970 125.451866 64.327362 0.000000 -89.965736 80.156380 143.117676
[L_forearm]
63 322.776093 0.000000 -0.000119 0.000399 -0.002313 -109.572586 322.776093
64 322.776093 0.000000 -0.000119 0.000398 -0.002313 -109.543518 322.776093
[L_front_hand]
63 241.149185 -0.042021 -3.300071 -178.667953 -1.835447 -27.422350 241.171753
64 241.149185 -0.042021 -3.300071 -178.667953 -1.835447 -27.422350 241.171753
[L_weapon_bone]
63 156.183838 0.000000 0.000000 0.000014 0.000007 0.000001 156.183838
64 156.183838 0.000000 0.000000 0.000014 0.000007 0.000001 156.183838
[L_front_hand01_01]
63 86.095154 20.947098 -0.655860 -0.366594 -0.477154 75.385574 88.609184
64 86.095154 20.947098 -0.655860 -0.366594 -0.477154 75.385574 88.609184
[L_front_hand02_01]
63 86.935165 -11.437475 24.513514 154.399796 -59.883835 -61.369587 91.046425
64 86.935165 -11.437475 24.513514 154.399796 -59.883835 -61.369587 91.046425
[L_front_hand03_01]
63 86.637497 -14.123976 -20.424902 -153.913849 58.118122 -62.702866 90.126129
64 86.637497 -14.123976 -20.424902 -153.913849 58.118122 -62.702866 90.126129
[L_front_hand01_02]
63 71.020905 -0.000179 0.000030 0.000334 -0.002323 -106.379684 71.020905
64 71.020905 -0.000179 0.000030 0.000334 -0.002323 -106.379684 71.020905
[L_front_hand02_02]
63 71.020927 -0.000119 0.000060 0.000334 -0.002323 -106.379684 71.020927
64 71.020927 -0.000119 0.000060 0.000334 -0.002323 -106.379684 71.020927
[L_front_hand03_02]
63 71.020905 -0.000060 0.000060 0.000334 -0.002323 -106.379684 71.020905
64 71.020905 -0.000060 0.000060 0.000334 -0.002323 -106.379684 71.020905
[R_forearm]
63 322.776428 -0.000060 0.000030 0.202016 0.065427 -108.215508 322.776428
64 322.776428 -0.000060 0.000030 0.202033 0.065373 -108.184975 322.776428
[R_front_hand]
63 238.847015 -0.006795 2.210259 -2.635298 -10.645461 -26.312506 238.857239
64 238.847015 -0.006795 2.210259 -2.635298 -10.645461 -26.312506 238.857239
[R_weapon_bone]
63 155.664093 0.002503 -0.000030 0.003487 0.001180 -90.988930 155.664078
64 155.664093 0.002503 -0.000030 0.003487 0.001180 -90.988930 155.664078
[R_front_hand01_01]
63 87.624611 14.231146 22.918642 -154.633499 -59.950619 61.746044 91.683487
64 87.624611 14.231146 22.918642 -154.633499 -59.950619 61.746044 91.683487
[R_front_hand02_01]
63 89.356956 14.367283 -19.491137 154.602661 58.302849 63.744389 92.579636
64 89.356956 14.367283 -19.491137 154.602661 58.302849 63.744389 92.579636
[R_front_hand03_01]
63 87.286232 -22.307278 -0.143439 0.162155 -0.423168 -75.767921 90.091743
64 87.286232 -22.307278 -0.143439 0.162155 -0.423168 -75.767921 90.091743
[R_front_hand01_02]
63 71.020905 0.000060 0.000119 0.002323 -0.000334 106.381714 71.020905
64 71.020905 0.000060 0.000119 0.002323 -0.000334 106.381714 71.020905
[R_front_hand02_02]
63 71.020844 -0.000030 -0.000119 0.002323 -0.000334 106.381714 71.020836
64 71.020844 -0.000030 -0.000119 0.002323 -0.000334 106.381714 71.020836
[R_front_hand03_02]
63 71.020905 0.000000 0.000030 0.002323 -0.000334 106.381714 71.020905
64 71.020905 0.000000 0.000030 0.002323 -0.000334 106.381714 71.020905
[null_rope01_connect]
63 328.732483 0.000000 -0.000238 -114.974609 -78.439804 -168.617859 328.732483
64 328.732483 0.000000 -0.000238 -127.732185 -68.985062 -161.209930 328.732483
[Rope1_Seg01]
63 0.000038 -0.001086 0.000000 -160.716965 -54.546124 -103.449562 0.001086
64 0.000038 -0.001102 0.000000 -169.383560 -53.135368 -98.713646 0.001103
[Rope1_Seg02]
63 139.999863 -0.000179 0.000000 -7.939127 -8.752268 4.762708 139.999863
64 139.999863 -0.000179 0.000000 -5.663589 -7.204356 4.179533 139.999863
[Rope1_Seg03]
63 139.999924 0.000060 -0.000060 -53.901115 -17.808416 7.229985 139.999924
64 139.999924 0.000060 -0.000060 -26.717615 -13.403388 6.248102 139.999924
[Rope1_Seg04]
63 139.999924 -0.000060 -0.000119 -87.275055 -39.135895 -19.363901 139.999924
64 139.999924 -0.000060 -0.000119 -125.917404 -37.205757 6.882524 139.999924
[Rope1_Seg05]
63 139.999832 0.000119 -0.000060 9.150781 13.251441 0.027504 139.999832
64 139.999832 0.000119 -0.000060 5.669308 14.501291 -7.740376 139.999832
[Rope1_Seg06]
63 139.999954 0.000119 -0.000060 26.402128 11.490993 23.678259 139.999954
64 139.999954 0.000119 -0.000060 33.754997 10.574669 25.788006 139.999954
[Rope1_Seg07]
63 139.999985 0.000060 0.000000 8.334771 8.551960 3.843613 139.999985
64 139.999985 0.000060 0.000000 10.582116 9.108451 3.956419 139.999985
[Rope1_Seg09]
63 121.602913 0.000119 -0.000089 -89.793175 -1.359789 0.847147 121.602913
64 121.602913 0.000119 -0.000089 -89.793175 -1.359789 0.847147 121.602913
[L_mid_hand01]
63 103.859421 1.038730 8.195221 130.544373 -67.584534 -38.866943 104.187431
64 103.859421 1.038730 8.195221 130.544373 -67.584534 -38.866943 104.187431
[L_mid_hand02]
63 105.572853 -4.139662 -10.864139 -168.923172 43.409309 -73.498886 106.211075
64 105.572853 -4.139662 -10.864139 -168.923172 43.409309 -73.498886 106.211075
[L_mid_hand03]
63 104.641464 17.579376 -3.913581 -6.012629 17.808178 74.893669 106.179977
64 104.641464 17.579376 -3.913581 -6.012627 17.808174 74.893669 106.179977
[null_rope02_connect]
63 328.732849 0.000179 -0.000119 -115.896812 69.584244 -12.203835 328.732849
64 328.732849 0.000179 -0.000119 -104.496468 71.343407 3.486765 328.732849
[Rope2_Seg01]
63 0.000062 -0.001068 0.000000 -74.647934 -42.138393 -97.920479 0.001070
64 0.000061 -0.001087 0.000000 -75.805763 -41.692665 -95.946815 0.001089
[Rope2_Seg02]
63 139.999741 -0.000060 -0.000119 4.750742 -1.163688 6.689524 139.999756
64 139.999741 -0.000060 -0.000119 4.969035 -1.002964 6.575716 139.999756
[Rope2_Seg03]
63 140.000107 0.000030 0.000000 11.341509 -1.125039 12.755082 140.000107
64 140.000107 0.000030 0.000000 11.437204 -0.784232 12.243934 140.000107
[Rope2_Seg04]
63 139.999802 0.000000 -0.000060 48.957245 -0.669694 42.431644 139.999802
64 139.999802 0.000000 -0.000060 48.523865 -0.335433 41.038383 139.999802
[Rope2_Seg05]
63 139.999985 -0.000060 0.000119 3.820847 14.551394 -0.942320 139.999985
64 139.999985 -0.000060 0.000119 -0.430933 12.149384 -5.323206 139.999985
[Rope2_Seg06]
63 139.999893 -0.000030 -0.000119 -14.901024 -11.559274 -25.974209 139.999893
64 139.999893 -0.000030 -0.000119 -14.454379 -9.180993 -24.593456 139.999893
[Rope2_Seg07]
63 139.999893 0.000060 -0.000060 -3.352821 0.759231 -7.308743 139.999893
64 139.999893 0.000060 -0.000060 -2.910704 0.963761 -6.398395 139.999893
[Rope2_Seg09]
63 121.338966 0.000089 -0.000060 33.793236 -1.359788 -0.847141 121.338966
64 121.338966 0.000089 -0.000060 33.793236 -1.359788 -0.847141 121.338966
[R_mid_hand01]
63 104.680779 11.144459 -10.335981 -16.212063 45.237247 70.462852 105.778534
64 104.680779 11.144459 -10.335981 -16.212063 45.237247 70.462852 105.778534
[R_mid_hand02]
63 104.070427 2.443552 8.231699 49.067371 -67.749794 39.286461 104.424065
64 104.070427 2.443552 8.231699 49.067368 -67.749771 39.286453 104.424065
[R_mid_hand03]
63 106.028137 -11.221827 -5.996406 -177.101105 15.551026 -76.585571 106.788818
64 106.028137 -11.221827 -5.996406 -177.101105 15.551026 -76.585571 106.788818
[spine02]
63 129.756927 0.001550 0.000119 0.373917 -4.043399 -13.133456 129.756927
64 129.756927 0.001550 0.000119 0.370794 -4.043714 -13.079795 129.756927
[spine03]
63 78.613373 0.081770 -4.898989 1.905067 3.828413 16.612314 78.765915
64 78.613365 0.081772 -4.898988 1.903217 3.828988 16.586256 78.765907
[pelvis]
63 169.435242 0.051022 0.000000 -4.703198 -0.247895 -12.212698 169.435257
64 169.435242 0.051022 0.000000 -2.189699 -0.204615 -11.534495 169.435257
[null_rope03_connect]
63 -1.257226 -2.466202 137.391083 109.383682 -88.052177 4.281074 137.418976
64 -1.257226 -2.466202 137.391083 -178.745544 -86.681236 -70.688797 137.418976
[null_rope04_connect]
63 -1.259640 -2.480268 -137.844437 109.383682 -88.052177 4.281074 137.872513
64 -1.259640 -2.480268 -137.844437 -178.745544 -86.681236 -70.688797 137.872513
[Rope3_Seg01]
63 0.000000 0.000000 0.000000 13.921879 13.639714 -91.731842 0.000000
64 0.000000 0.000000 0.000000 12.354546 15.015666 -95.952377 0.000000
[Rope3_Seg02]
63 139.999924 -0.000119 0.000060 1.268479 -8.195044 5.387249 139.999924
64 139.999924 -0.000119 0.000060 1.564821 -6.568982 5.512414 139.999924
[Rope3_Seg03]
63 139.999924 -0.000119 0.000119 1.364322 -13.234302 10.029279 139.999924
64 139.999924 -0.000119 0.000119 1.650485 -9.888271 9.421936 139.999924
[Rope3_Seg04]
63 139.999924 0.000119 0.000000 -0.497383 -19.676556 18.025711 139.999924
64 139.999924 0.000119 0.000000 -0.233413 -15.323339 17.935905 139.999924
[Rope3_Seg05]
63 139.999924 -0.000238 0.000060 0.225886 -3.201066 -6.068244 139.999924
64 139.999924 -0.000238 0.000060 0.307535 -3.480641 -4.848173 139.999924
[Rope3_Seg06]
63 139.999893 -0.000119 -0.000060 -0.535353 0.112838 -6.951930 139.999893
64 139.999893 -0.000119 -0.000060 -0.447706 0.125978 -7.501945 139.999893
[Rope3_Seg07]
63 139.999771 0.000060 -0.000119 0.382665 -1.255756 -2.713208 139.999771
64 139.999771 0.000060 -0.000119 0.355926 -1.132422 -2.806496 139.999771
[Rope3_Seg08]
63 139.999985 -0.000060 0.000000 0.438980 -0.803006 -1.702855 139.999985
64 139.999985 -0.000060 0.000000 0.413582 -0.728941 -1.771649 139.999985
[Rope3_Seg09]
63 90.185997 -0.000179 -0.000060 89.793228 -1.359877 -0.847183 90.185997
64 90.185997 -0.000179 -0.000060 89.793228 -1.359877 -0.847183 90.185997
[R_rear_hand01]
63 103.366196 -6.073594 -10.757982 -177.714203 24.565960 -73.910950 104.101845
64 103.366196 -6.073594 -10.757982 -177.714203 24.565960 -73.910950 104.101845
[R_rear_hand02]
63 100.509819 12.039542 -7.992327 -12.874829 36.868488 72.167213 101.543350
64 100.509819 12.039542 -7.992327 -12.874829 36.868488 72.167213 101.543350
[R_rear_hand03]
63 101.539970 5.215704 5.435467 71.484581 -71.816628 21.513813 101.819031
64 101.539970 5.215704 5.435467 71.484581 -71.816628 21.513813 101.819031
[Rope4_Seg01]
63 -0.000007 -0.001086 -0.000153 -98.792885 12.622873 -101.172447 0.001096
64 -0.000008 -0.001102 -0.000153 -99.965797 11.414972 -108.242470 0.001113
[Rope4_Seg02]
63 139.999985 0.000060 0.000119 0.133658 0.904026 -8.402749 139.999985
64 139.999985 0.000060 0.000119 0.806529 -0.550975 -6.653081 139.999985
[Rope4_Seg03]
63 139.999924 0.000000 -0.000238 -0.775202 1.027966 -14.804994 139.999924
64 139.999924 0.000000 -0.000238 0.597596 -1.333662 -10.624681 139.999924
[Rope4_Seg04]
63 139.999985 0.000000 0.000119 -5.782997 0.389509 -30.596424 139.999985
64 139.999985 0.000000 0.000119 -1.504843 -5.515134 -24.293442 139.999985
[Rope4_Seg05]
63 139.999802 -0.000060 -0.000119 2.490763 7.766107 12.949600 139.999802
64 139.999802 -0.000060 -0.000119 1.590114 9.678391 9.563143 139.999802
[Rope4_Seg06]
63 139.999924 0.000000 0.000060 0.527858 5.095945 13.885947 139.999924
64 139.999924 0.000000 0.000060 0.436653 7.720207 12.163568 139.999924
[Rope4_Seg07]
63 139.999802 0.000000 0.000000 -0.243500 2.655462 4.800930 139.999802
64 139.999802 0.000000 0.000000 -0.223188 3.265930 3.919553 139.999802
[Rope4_Seg08]
63 139.999924 0.000000 0.000119 -1.817085 1.515184 2.772784 139.999924
64 139.999924 0.000000 0.000119 -1.772589 1.857198 2.253584 139.999924
[Rope4_Seg09]
63 90.185791 0.000060 0.000060 -135.617828 2.228885 0.850567 90.185791
64 90.185791 0.000060 0.000060 -135.617828 2.228885 0.850567 90.185791
[L_rear_hand01]
63 101.696655 -8.392275 -7.654577 -12.874829 -36.868488 107.832764 102.329041
64 101.696655 -8.392275 -7.654577 -12.874829 -36.868488 107.832764 102.329041
[L_rear_hand02]
63 102.726799 -1.568258 5.773216 71.484581 71.816628 158.486160 102.900848
64 102.726799 -1.568258 5.773216 71.484581 71.816628 158.486160 102.900848
[L_rear_hand03]
63 104.552910 9.721220 -10.420293 -177.714203 -24.565960 -106.089035 105.519653
64 104.552910 9.721220 -10.420293 -177.714203 -24.565960 -106.089035 105.519653
